<!DOCTYPE svg PUBLIC "-//W3C//DTD SVG 1.1//EN" "http://www.w3.org/Graphics/SVG/1.1/DTD/svg11.dtd">
<!-- Uploaded to: SVG Repo, www.svgrepo.com, Transformed by: SVG Repo Mixer Tools -->
<svg fill="#188dd6" height="800px" width="800px" version="1.1" id="Layer_1" xmlns="http://www.w3.org/2000/svg" xmlns:xlink="http://www.w3.org/1999/xlink" viewBox="0 0 512 512" xml:space="preserve">
<g id="SVGRepo_bgCarrier" stroke-width="0"/>
<g id="SVGRepo_tracerCarrier" stroke-linecap="round" stroke-linejoin="round"/>
<g id="SVGRepo_iconCarrier"> <g> <g> <path d="M478.609,166.957v-66.783h-33.391V66.783h-33.391V33.391h-66.783V0H166.957v33.391h-66.783v33.391H66.783v33.391H33.391 v66.783H0v178.087h33.391v66.783h33.391v33.391h33.391v33.391h66.783V512h178.087v-33.391h66.783v-33.391h33.391v-33.391h33.391 v-66.783H512V166.957H478.609z M345.043,189.217h-33.391v-33.391H200.348v77.913h111.304v33.391h33.391v89.043h-33.391v33.391 H267.13v44.522h-33.391v-44.522h-33.391v-33.391h-33.391v-33.391h33.391v33.391h111.304V267.13H200.348v-33.391h-33.391v-77.913 h33.391v-33.391h33.391V77.913h33.391v44.522h44.522v33.391h33.391V189.217z"/> </g> </g> </g>
</svg>