<svg width="52" height="52" viewBox="0 0 52 52" fill="none" xmlns="http://www.w3.org/2000/svg">
<g clip-path="url(#clip0_1944_13998)">
<path fill-rule="evenodd" clip-rule="evenodd" d="M6.5 6.13889C6.5 6.33832 6.7223 6.5 6.99653 6.5H7.96476C8.23898 6.5 8.46128 6.33832 8.46128 6.13889C8.46128 5.93945 8.23898 5.77777 7.96476 5.77777H6.99653C6.7223 5.77777 6.5 5.93945 6.5 6.13889ZM9.40469 6.13889C9.40469 6.33832 9.62699 6.5 9.90122 6.5H11.8377C12.1119 6.5 12.3342 6.33832 12.3342 6.13889C12.3342 5.93945 12.1119 5.77777 11.8377 5.77777H9.90122C9.62699 5.77777 9.40469 5.93945 9.40469 6.13889ZM13.2776 6.13889C13.2776 6.33832 13.4999 6.5 13.7741 6.5H15.7106C15.9848 6.5 16.2071 6.33832 16.2071 6.13889C16.2071 5.93945 15.9848 5.77777 15.7106 5.77777L13.7741 5.77777C13.4999 5.77777 13.2776 5.93945 13.2776 6.13889ZM17.1505 6.13889C17.1505 6.33832 17.3728 6.5 17.647 6.5H19.5835C19.8577 6.5 20.08 6.33832 20.08 6.13889C20.08 5.93945 19.8577 5.77777 19.5835 5.77777H17.647C17.3728 5.77777 17.1505 5.93945 17.1505 6.13889ZM21.0234 6.13889C21.0234 6.33832 21.2457 6.5 21.52 6.5H23.4564C23.7307 6.5 23.953 6.33832 23.953 6.13889C23.953 5.93945 23.7307 5.77777 23.4564 5.77777H21.52C21.2457 5.77777 21.0234 5.93945 21.0234 6.13889ZM24.8964 6.13889C24.8964 6.33832 25.1187 6.5 25.3929 6.5H27.3293C27.6036 6.5 27.8259 6.33832 27.8259 6.13889C27.8259 5.93945 27.6036 5.77777 27.3293 5.77777H25.3929C25.1187 5.77777 24.8964 5.93945 24.8964 6.13889ZM28.7693 6.13889C28.7693 6.33832 28.9916 6.5 29.2658 6.5H31.2023C31.4765 6.5 31.6988 6.33832 31.6988 6.13889C31.6988 5.93945 31.4765 5.77777 31.2023 5.77777H29.2658C28.9916 5.77777 28.7693 5.93945 28.7693 6.13889ZM32.6422 6.13889C32.6422 6.33832 32.8645 6.5 33.1387 6.5H35.0752C35.3494 6.5 35.5717 6.33832 35.5717 6.13889C35.5717 5.93945 35.3494 5.77777 35.0752 5.77777H33.1387C32.8645 5.77777 32.6422 5.93945 32.6422 6.13889ZM36.5151 6.13889C36.5151 6.33832 36.7374 6.5 37.0116 6.5H38.9481C39.2223 6.5 39.4446 6.33832 39.4446 6.13889C39.4446 5.93945 39.2223 5.77777 38.9481 5.77777H37.0116C36.7374 5.77777 36.5151 5.93945 36.5151 6.13889ZM40.388 6.13889C40.388 6.33832 40.6103 6.5 40.8846 6.5L42.821 6.5C43.0952 6.5 43.3175 6.33832 43.3175 6.13889C43.3175 5.93945 43.0952 5.77777 42.821 5.77777H40.8846C40.6103 5.77777 40.388 5.93945 40.388 6.13889ZM44.2609 6.13889C44.2609 6.33832 44.4833 6.5 44.7575 6.5H45.7257C45.9999 6.5 46.2222 6.33832 46.2222 6.13889C46.2222 5.93945 45.9999 5.77777 45.7257 5.77777H44.7575C44.4833 5.77777 44.2609 5.93945 44.2609 6.13889Z" fill="#707070"/>
<path d="M28.0105 26.7222H26.4984L45.6611 46.4028H43.3334V47.4861H47.4862V43.3333H46.4028V45.6117L28.0105 26.7222Z" fill="#23E798"/>
<path d="M28.0103 26.7222H26.4983L6.76941 6.46013C6.83746 6.48562 6.91465 6.50001 6.99646 6.50001H7.96469C8.07277 6.50001 8.17279 6.47489 8.25431 6.43225L28.0103 26.7222Z" fill="#F47B7B"/>
<path fill-rule="evenodd" clip-rule="evenodd" d="M5.77783 26.3611C5.77783 26.5606 6.00418 26.7222 6.28339 26.7222H7.26922C7.54843 26.7222 7.77478 26.5606 7.77478 26.3611C7.77478 26.1617 7.54843 26 7.26922 26H6.28339C6.00418 26 5.77783 26.1617 5.77783 26.3611ZM8.73533 26.3611C8.73533 26.5606 8.96168 26.7222 9.24089 26.7222H11.2126C11.4918 26.7222 11.7181 26.5606 11.7181 26.3611C11.7181 26.1617 11.4918 26 11.2126 26H9.24089C8.96168 26 8.73533 26.1617 8.73533 26.3611ZM12.6787 26.3611C12.6787 26.5606 12.905 26.7222 13.1842 26.7222H15.1559C15.4351 26.7222 15.6614 26.5606 15.6614 26.3611C15.6614 26.1617 15.4351 26 15.1559 26H13.1842C12.905 26 12.6787 26.1617 12.6787 26.3611ZM16.622 26.3611C16.622 26.5606 16.8483 26.7222 17.1276 26.7222H19.0992C19.3784 26.7222 19.6048 26.5606 19.6048 26.3611C19.6048 26.1617 19.3784 26 19.0992 26H17.1276C16.8483 26 16.622 26.1617 16.622 26.3611ZM20.5653 26.3611C20.5653 26.5606 20.7917 26.7222 21.0709 26.7222H23.0426C23.3218 26.7222 23.5481 26.5606 23.5481 26.3611C23.5481 26.1617 23.3218 26 23.0426 26H21.0709C20.7917 26 20.5653 26.1617 20.5653 26.3611ZM24.5087 26.3611C24.5087 26.5606 24.735 26.7222 25.0142 26.7222H26.9859C27.2651 26.7222 27.4914 26.5606 27.4914 26.3611C27.4914 26.1617 27.2651 26 26.9859 26H25.0142C24.735 26 24.5087 26.1617 24.5087 26.3611ZM28.452 26.3611C28.452 26.5606 28.6783 26.7222 28.9576 26.7222H30.9292C31.2084 26.7222 31.4348 26.5606 31.4348 26.3611C31.4348 26.1617 31.2084 26 30.9292 26H28.9576C28.6783 26 28.452 26.1617 28.452 26.3611ZM32.3953 26.3611C32.3953 26.5606 32.6217 26.7222 32.9009 26.7222L34.8726 26.7222C35.1518 26.7222 35.3781 26.5606 35.3781 26.3611C35.3781 26.1617 35.1518 26 34.8726 26H32.9009C32.6217 26 32.3953 26.1617 32.3953 26.3611ZM36.3387 26.3611C36.3387 26.5606 36.565 26.7222 36.8442 26.7222H38.8159C39.0951 26.7222 39.3215 26.5606 39.3215 26.3611C39.3215 26.1617 39.0951 26 38.8159 26H36.8442C36.565 26 36.3387 26.1617 36.3387 26.3611ZM40.282 26.3611C40.282 26.5606 40.5084 26.7222 40.7876 26.7222H42.7592C43.0384 26.7222 43.2648 26.5606 43.2648 26.3611C43.2648 26.1617 43.0384 26 42.7592 26H40.7876C40.5084 26 40.282 26.1617 40.282 26.3611ZM44.2253 26.3611C44.2253 26.5606 44.4517 26.7222 44.7309 26.7222H45.7167C45.9959 26.7222 46.2223 26.5606 46.2223 26.3611C46.2223 26.1617 45.9959 26 45.7167 26H44.7309C44.4517 26 44.2253 26.1617 44.2253 26.3611Z" fill="#E28D8D"/>
</g>
<defs>
<clipPath id="clip0_1944_13998">
<rect width="43.3333" height="43.3333" fill="white" transform="matrix(1 0 0 -1 4.33337 47.6667)"/>
</clipPath>
</defs>
</svg>
