<svg width="52" height="52" viewBox="0 0 52 52" fill="none" xmlns="http://www.w3.org/2000/svg">
<g clip-path="url(#clip0_1944_13621)">
<path fill-rule="evenodd" clip-rule="evenodd" d="M6.5 45.8611C6.5 45.6617 6.7223 45.5 6.99653 45.5H7.96476C8.23898 45.5 8.46128 45.6617 8.46128 45.8611C8.46128 46.0606 8.23898 46.2222 7.96476 46.2222H6.99653C6.7223 46.2222 6.5 46.0606 6.5 45.8611ZM9.40469 45.8611C9.40469 45.6617 9.62699 45.5 9.90122 45.5H11.8377C12.1119 45.5 12.3342 45.6617 12.3342 45.8611C12.3342 46.0606 12.1119 46.2222 11.8377 46.2222H9.90122C9.62699 46.2222 9.40469 46.0606 9.40469 45.8611ZM13.2776 45.8611C13.2776 45.6617 13.4999 45.5 13.7741 45.5H15.7106C15.9848 45.5 16.2071 45.6617 16.2071 45.8611C16.2071 46.0606 15.9848 46.2222 15.7106 46.2222H13.7741C13.4999 46.2222 13.2776 46.0606 13.2776 45.8611ZM17.1505 45.8611C17.1505 45.6617 17.3728 45.5 17.647 45.5H19.5835C19.8577 45.5 20.08 45.6617 20.08 45.8611C20.08 46.0606 19.8577 46.2222 19.5835 46.2222H17.647C17.3728 46.2222 17.1505 46.0606 17.1505 45.8611ZM21.0234 45.8611C21.0234 45.6617 21.2457 45.5 21.52 45.5H23.4564C23.7307 45.5 23.953 45.6617 23.953 45.8611C23.953 46.0606 23.7307 46.2222 23.4564 46.2222H21.52C21.2457 46.2222 21.0234 46.0606 21.0234 45.8611ZM24.8964 45.8611C24.8964 45.6617 25.1187 45.5 25.3929 45.5H27.3293C27.6036 45.5 27.8259 45.6617 27.8259 45.8611C27.8259 46.0606 27.6036 46.2222 27.3293 46.2222H25.3929C25.1187 46.2222 24.8964 46.0606 24.8964 45.8611ZM28.7693 45.8611C28.7693 45.6617 28.9916 45.5 29.2658 45.5H31.2023C31.4765 45.5 31.6988 45.6617 31.6988 45.8611C31.6988 46.0606 31.4765 46.2222 31.2023 46.2222H29.2658C28.9916 46.2222 28.7693 46.0606 28.7693 45.8611ZM32.6422 45.8611C32.6422 45.6617 32.8645 45.5 33.1387 45.5H35.0752C35.3494 45.5 35.5717 45.6617 35.5717 45.8611C35.5717 46.0606 35.3494 46.2222 35.0752 46.2222H33.1387C32.8645 46.2222 32.6422 46.0606 32.6422 45.8611ZM36.5151 45.8611C36.5151 45.6617 36.7374 45.5 37.0116 45.5H38.9481C39.2223 45.5 39.4446 45.6617 39.4446 45.8611C39.4446 46.0606 39.2223 46.2222 38.9481 46.2222H37.0116C36.7374 46.2222 36.5151 46.0606 36.5151 45.8611ZM40.388 45.8611C40.388 45.6617 40.6103 45.5 40.8846 45.5H42.821C43.0952 45.5 43.3175 45.6617 43.3175 45.8611C43.3175 46.0606 43.0952 46.2222 42.821 46.2222H40.8846C40.6103 46.2222 40.388 46.0606 40.388 45.8611ZM44.2609 45.8611C44.2609 45.6617 44.4833 45.5 44.7575 45.5H45.7257C45.9999 45.5 46.2222 45.6617 46.2222 45.8611C46.2222 46.0606 45.9999 46.2222 45.7257 46.2222H44.7575C44.4833 46.2222 44.2609 46.0606 44.2609 45.8611Z" fill="#707070"/>
<path d="M28.0103 25.2778H26.4983L45.6609 5.59722H43.3333V4.51389H47.486V8.66666H46.4027V6.38831L28.0103 25.2778Z" fill="#23E798"/>
<path d="M28.0103 25.2778H26.4983L6.76941 45.5399C6.83746 45.5144 6.91465 45.5 6.99646 45.5H7.96469C8.07277 45.5 8.17279 45.5251 8.25431 45.5678L28.0103 25.2778Z" fill="#F47B7B"/>
<path fill-rule="evenodd" clip-rule="evenodd" d="M5.77777 25.6389C5.77777 25.4395 6.00412 25.2778 6.28333 25.2778H7.26916C7.54837 25.2778 7.77472 25.4395 7.77472 25.6389C7.77472 25.8383 7.54837 26 7.26916 26H6.28333C6.00412 26 5.77777 25.8383 5.77777 25.6389ZM8.73527 25.6389C8.73527 25.4395 8.96162 25.2778 9.24083 25.2778H11.2125C11.4917 25.2778 11.718 25.4395 11.718 25.6389C11.718 25.8383 11.4917 26 11.2125 26H9.24083C8.96162 26 8.73527 25.8383 8.73527 25.6389ZM12.6786 25.6389C12.6786 25.4395 12.9049 25.2778 13.1842 25.2778H15.1558C15.435 25.2778 15.6614 25.4395 15.6614 25.6389C15.6614 25.8383 15.435 26 15.1558 26H13.1842C12.9049 26 12.6786 25.8383 12.6786 25.6389ZM16.6219 25.6389C16.6219 25.4395 16.8483 25.2778 17.1275 25.2778H19.0992C19.3784 25.2778 19.6047 25.4395 19.6047 25.6389C19.6047 25.8383 19.3784 26 19.0992 26H17.1275C16.8483 26 16.6219 25.8383 16.6219 25.6389ZM20.5653 25.6389C20.5653 25.4395 20.7916 25.2778 21.0708 25.2778H23.0425C23.3217 25.2778 23.548 25.4395 23.548 25.6389C23.548 25.8383 23.3217 26 23.0425 26H21.0708C20.7916 26 20.5653 25.8383 20.5653 25.6389ZM24.5086 25.6389C24.5086 25.4395 24.735 25.2778 25.0142 25.2778H26.9858C27.265 25.2778 27.4914 25.4395 27.4914 25.6389C27.4914 25.8383 27.265 26 26.9858 26H25.0142C24.735 26 24.5086 25.8383 24.5086 25.6389ZM28.4519 25.6389C28.4519 25.4395 28.6783 25.2778 28.9575 25.2778H30.9292C31.2084 25.2778 31.4347 25.4395 31.4347 25.6389C31.4347 25.8383 31.2084 26 30.9292 26H28.9575C28.6783 26 28.4519 25.8383 28.4519 25.6389ZM32.3953 25.6389C32.3953 25.4395 32.6216 25.2778 32.9008 25.2778L34.8725 25.2778C35.1517 25.2778 35.3781 25.4395 35.3781 25.6389C35.3781 25.8383 35.1517 26 34.8725 26H32.9008C32.6216 26 32.3953 25.8383 32.3953 25.6389ZM36.3386 25.6389C36.3386 25.4395 36.565 25.2778 36.8442 25.2778H38.8158C39.095 25.2778 39.3214 25.4395 39.3214 25.6389C39.3214 25.8383 39.095 26 38.8158 26H36.8442C36.565 26 36.3386 25.8383 36.3386 25.6389ZM40.2819 25.6389C40.2819 25.4395 40.5083 25.2778 40.7875 25.2778H42.7592C43.0384 25.2778 43.2647 25.4395 43.2647 25.6389C43.2647 25.8383 43.0384 26 42.7592 26H40.7875C40.5083 26 40.2819 25.8383 40.2819 25.6389ZM44.2253 25.6389C44.2253 25.4395 44.4516 25.2778 44.7308 25.2778H45.7167C45.9959 25.2778 46.2222 25.4395 46.2222 25.6389C46.2222 25.8383 45.9959 26 45.7167 26H44.7308C44.4516 26 44.2253 25.8383 44.2253 25.6389Z" fill="#16CA83"/>
</g>
<defs>
<clipPath id="clip0_1944_13621">
<rect width="43.3333" height="43.3333" fill="white" transform="translate(4.33331 4.33334)"/>
</clipPath>
</defs>
</svg>
