<svg width="72" height="72" viewBox="0 0 72 72" fill="none" xmlns="http://www.w3.org/2000/svg">
<path fill-rule="evenodd" clip-rule="evenodd" d="M8 36C8 35.7239 8.3134 35.5 8.7 35.5H10.065C10.4516 35.5 10.765 35.7239 10.765 36C10.765 36.2761 10.4516 36.5 10.065 36.5H8.7C8.3134 36.5 8 36.2761 8 36ZM12.095 36C12.095 35.7239 12.4084 35.5 12.795 35.5H15.525C15.9116 35.5 16.225 35.7239 16.225 36C16.225 36.2761 15.9116 36.5 15.525 36.5H12.795C12.4084 36.5 12.095 36.2761 12.095 36ZM17.555 36C17.555 35.7239 17.8684 35.5 18.255 35.5H20.985C21.3716 35.5 21.685 35.7239 21.685 36C21.685 36.2761 21.3716 36.5 20.985 36.5H18.255C17.8684 36.5 17.555 36.2761 17.555 36ZM23.015 36C23.015 35.7239 23.3284 35.5 23.715 35.5H26.445C26.8316 35.5 27.145 35.7239 27.145 36C27.145 36.2761 26.8316 36.5 26.445 36.5H23.715C23.3284 36.5 23.015 36.2761 23.015 36ZM28.475 36C28.475 35.7239 28.7884 35.5 29.175 35.5H31.905C32.2916 35.5 32.605 35.7239 32.605 36C32.605 36.2761 32.2916 36.5 31.905 36.5H29.175C28.7884 36.5 28.475 36.2761 28.475 36ZM33.935 36C33.935 35.7239 34.2484 35.5 34.635 35.5H37.365C37.7516 35.5 38.065 35.7239 38.065 36C38.065 36.2761 37.7516 36.5 37.365 36.5H34.635C34.2484 36.5 33.935 36.2761 33.935 36ZM39.395 36C39.395 35.7239 39.7084 35.5 40.095 35.5H42.825C43.2116 35.5 43.525 35.7239 43.525 36C43.525 36.2761 43.2116 36.5 42.825 36.5H40.095C39.7084 36.5 39.395 36.2761 39.395 36ZM44.855 36C44.855 35.7239 45.1684 35.5 45.555 35.5H48.285C48.6716 35.5 48.985 35.7239 48.985 36C48.985 36.2761 48.6716 36.5 48.285 36.5H45.555C45.1684 36.5 44.855 36.2761 44.855 36ZM50.315 36C50.315 35.7239 50.6284 35.5 51.015 35.5H53.745C54.1316 35.5 54.445 35.7239 54.445 36C54.445 36.2761 54.1316 36.5 53.745 36.5H51.015C50.6284 36.5 50.315 36.2761 50.315 36ZM55.775 36C55.775 35.7239 56.0884 35.5 56.475 35.5H59.205C59.5916 35.5 59.905 35.7239 59.905 36C59.905 36.2761 59.5916 36.5 59.205 36.5H56.475C56.0884 36.5 55.775 36.2761 55.775 36ZM61.235 36C61.235 35.7239 61.5484 35.5 61.935 35.5H63.3C63.6866 35.5 64 35.7239 64 36C64 36.2761 63.6866 36.5 63.3 36.5H61.935C61.5484 36.5 61.235 36.2761 61.235 36Z" fill="#707070"/>
<path d="M36.5746 50L6.8291 35.9535L36.3777 22H39.9813L10.4327 35.9535L40.1783 50H36.5746Z" fill="#F47B7B"/>
<path d="M39.9813 22L62.7277 11.2586L61.7582 14.1673L63.218 14.6539L65.0001 9.30771L59.6538 7.52563L59.1672 8.98545L61.9638 9.91765L36.3777 22H39.9813Z" fill="#23E798"/>
<path d="M40.1783 50L62.7277 60.6484L61.7582 57.7397L63.218 57.2531L65.0001 62.5993L59.6538 64.3814L59.1672 62.9216L61.9638 61.9893L36.5746 50H40.1783Z" fill="#23E798"/>
<path fill-rule="evenodd" clip-rule="evenodd" d="M8 22.5C8 22.2239 8.3134 22 8.7 22H10.065C10.4516 22 10.765 22.2239 10.765 22.5C10.765 22.7761 10.4516 23 10.065 23H8.7C8.3134 23 8 22.7761 8 22.5ZM12.095 22.5C12.095 22.2239 12.4084 22 12.795 22H15.525C15.9116 22 16.225 22.2239 16.225 22.5C16.225 22.7761 15.9116 23 15.525 23H12.795C12.4084 23 12.095 22.7761 12.095 22.5ZM17.555 22.5C17.555 22.2239 17.8684 22 18.255 22H20.985C21.3716 22 21.685 22.2239 21.685 22.5C21.685 22.7761 21.3716 23 20.985 23H18.255C17.8684 23 17.555 22.7761 17.555 22.5ZM23.015 22.5C23.015 22.2239 23.3284 22 23.715 22H26.445C26.8316 22 27.145 22.2239 27.145 22.5C27.145 22.7761 26.8316 23 26.445 23H23.715C23.3284 23 23.015 22.7761 23.015 22.5ZM28.475 22.5C28.475 22.2239 28.7884 22 29.175 22H31.905C32.2916 22 32.605 22.2239 32.605 22.5C32.605 22.7761 32.2916 23 31.905 23H29.175C28.7884 23 28.475 22.7761 28.475 22.5ZM33.935 22.5C33.935 22.2239 34.2484 22 34.635 22L37.365 22C37.7516 22 38.065 22.2239 38.065 22.5C38.065 22.7761 37.7516 23 37.365 23H34.635C34.2484 23 33.935 22.7761 33.935 22.5ZM39.395 22.5C39.395 22.2239 39.7084 22 40.095 22H42.825C43.2116 22 43.525 22.2239 43.525 22.5C43.525 22.7761 43.2116 23 42.825 23H40.095C39.7084 23 39.395 22.7761 39.395 22.5ZM44.855 22.5C44.855 22.2239 45.1684 22 45.555 22H48.285C48.6716 22 48.985 22.2239 48.985 22.5C48.985 22.7761 48.6716 23 48.285 23H45.555C45.1684 23 44.855 22.7761 44.855 22.5ZM50.315 22.5C50.315 22.2239 50.6284 22 51.015 22H53.745C54.1316 22 54.445 22.2239 54.445 22.5C54.445 22.7761 54.1316 23 53.745 23H51.015C50.6284 23 50.315 22.7761 50.315 22.5ZM55.775 22.5C55.775 22.2239 56.0884 22 56.475 22H59.205C59.5916 22 59.905 22.2239 59.905 22.5C59.905 22.7761 59.5916 23 59.205 23H56.475C56.0884 23 55.775 22.7761 55.775 22.5ZM61.235 22.5C61.235 22.2239 61.5484 22 61.935 22H63.3C63.6866 22 64 22.2239 64 22.5C64 22.7761 63.6866 23 63.3 23H61.935C61.5484 23 61.235 22.7761 61.235 22.5Z" fill="#16CA83"/>
<path fill-rule="evenodd" clip-rule="evenodd" d="M8 49.5C8 49.7761 8.3134 50 8.7 50H10.065C10.4516 50 10.765 49.7761 10.765 49.5C10.765 49.2239 10.4516 49 10.065 49H8.7C8.3134 49 8 49.2239 8 49.5ZM12.095 49.5C12.095 49.7761 12.4084 50 12.795 50H15.525C15.9116 50 16.225 49.7761 16.225 49.5C16.225 49.2239 15.9116 49 15.525 49H12.795C12.4084 49 12.095 49.2239 12.095 49.5ZM17.555 49.5C17.555 49.7761 17.8684 50 18.255 50H20.985C21.3716 50 21.685 49.7761 21.685 49.5C21.685 49.2239 21.3716 49 20.985 49H18.255C17.8684 49 17.555 49.2239 17.555 49.5ZM23.015 49.5C23.015 49.7761 23.3284 50 23.715 50H26.445C26.8316 50 27.145 49.7761 27.145 49.5C27.145 49.2239 26.8316 49 26.445 49H23.715C23.3284 49 23.015 49.2239 23.015 49.5ZM28.475 49.5C28.475 49.7761 28.7884 50 29.175 50H31.905C32.2916 50 32.605 49.7761 32.605 49.5C32.605 49.2239 32.2916 49 31.905 49H29.175C28.7884 49 28.475 49.2239 28.475 49.5ZM33.935 49.5C33.935 49.7761 34.2484 50 34.635 50H37.365C37.7516 50 38.065 49.7761 38.065 49.5C38.065 49.2239 37.7516 49 37.365 49H34.635C34.2484 49 33.935 49.2239 33.935 49.5ZM39.395 49.5C39.395 49.7761 39.7084 50 40.095 50H42.825C43.2116 50 43.525 49.7761 43.525 49.5C43.525 49.2239 43.2116 49 42.825 49H40.095C39.7084 49 39.395 49.2239 39.395 49.5ZM44.855 49.5C44.855 49.7761 45.1684 50 45.555 50H48.285C48.6716 50 48.985 49.7761 48.985 49.5C48.985 49.2239 48.6716 49 48.285 49H45.555C45.1684 49 44.855 49.2239 44.855 49.5ZM50.315 49.5C50.315 49.7761 50.6284 50 51.015 50H53.745C54.1316 50 54.445 49.7761 54.445 49.5C54.445 49.2239 54.1316 49 53.745 49H51.015C50.6284 49 50.315 49.2239 50.315 49.5ZM55.775 49.5C55.775 49.7761 56.0884 50 56.475 50H59.205C59.5916 50 59.905 49.7761 59.905 49.5C59.905 49.2239 59.5916 49 59.205 49H56.475C56.0884 49 55.775 49.2239 55.775 49.5ZM61.235 49.5C61.235 49.7761 61.5484 50 61.935 50H63.3C63.6866 50 64 49.7761 64 49.5C64 49.2239 63.6866 49 63.3 49H61.935C61.5484 49 61.235 49.2239 61.235 49.5Z" fill="#E28D8D"/>
</svg>
